<svg width="28" height="28" viewBox="0 0 28 28" fill="none" xmlns="http://www.w3.org/2000/svg">
<path d="M2.74345 15.4154C2.33159 12.7352 2.12567 11.3952 2.63236 10.2073C3.13904 9.01932 4.2632 8.20651 6.51149 6.58091L8.19132 5.36634C10.9882 3.34412 12.3866 2.33301 14.0002 2.33301C15.6137 2.33301 17.0122 3.34412 19.809 5.36634L21.4888 6.58091C23.7372 8.20651 24.8613 9.01932 25.368 10.2073C25.8746 11.3952 25.6687 12.7352 25.2569 15.4154L24.9057 17.7008C24.3218 21.5001 24.0299 23.3997 22.6674 24.533C21.3048 25.6663 19.3127 25.6663 15.3288 25.6663H12.6716C8.68756 25.6663 6.69556 25.6663 5.333 24.533C3.97043 23.3997 3.67851 21.5001 3.09466 17.7008L2.74345 15.4154Z" fill="#F4E5EE" stroke="#7C084B" stroke-width="1.75" stroke-linejoin="round"/>
<path d="M17.5003 19.833C16.5675 20.5591 15.3422 20.9997 14.0003 20.9997C12.6583 20.9997 11.433 20.5591 10.5002 19.833" stroke="#7C084B" stroke-width="1.75" stroke-linecap="round"/>
</svg>
