<svg width="28" height="28" viewBox="0 0 28 28" fill="none" xmlns="http://www.w3.org/2000/svg">
<path d="M18.0834 7.58333C18.0834 9.8385 16.2552 11.6667 14.0001 11.6667C11.7449 11.6667 9.91675 9.8385 9.91675 7.58333C9.91675 5.32817 11.7449 3.5 14.0001 3.5C16.2552 3.5 18.0834 5.32817 18.0834 7.58333Z" stroke="#595454" stroke-width="1.75"/>
<path d="M25.6667 20.4163C25.6667 22.6715 23.8385 24.4997 21.5833 24.4997C19.3282 24.4997 17.5 22.6715 17.5 20.4163C17.5 18.1612 19.3282 16.333 21.5833 16.333C23.8385 16.333 25.6667 18.1612 25.6667 20.4163Z" stroke="#595454" stroke-width="1.75"/>
<path d="M10.4999 20.4163C10.4999 22.6715 8.67175 24.4997 6.41659 24.4997C4.16142 24.4997 2.33325 22.6715 2.33325 20.4163C2.33325 18.1612 4.16142 16.333 6.41659 16.333C8.67175 16.333 10.4999 18.1612 10.4999 20.4163Z" stroke="#595454" stroke-width="1.75"/>
</svg>
