<svg width="28" height="28" viewBox="0 0 28 28" fill="none" xmlns="http://www.w3.org/2000/svg">
<rect x="12" y="23" width="5" height="3" fill="#F4E5EE"/>
<rect x="20" y="13" width="2" height="2" fill="#F4E5EE"/>
<path d="M22.1666 12.2504V11.667C22.1666 7.26729 22.1665 5.06737 20.7997 3.70054C19.4329 2.33374 17.233 2.33374 12.8333 2.33374C8.43364 2.33374 6.23373 2.33381 4.8669 3.7006C3.50011 5.06742 3.50008 7.26725 3.50005 11.6669L3.5 16.9171C3.49997 20.7524 3.49995 22.6701 4.55919 23.9608C4.75314 24.1972 4.96984 24.4138 5.20617 24.6079C6.4969 25.6671 8.41457 25.6671 12.2499 25.6671" fill="#F4E5EE"/>
<path d="M22.1666 12.2504V11.667C22.1666 7.26729 22.1665 5.06737 20.7997 3.70054C19.4329 2.33374 17.233 2.33374 12.8333 2.33374C8.43364 2.33374 6.23373 2.33381 4.8669 3.7006C3.50011 5.06742 3.50008 7.26725 3.50005 11.6669L3.5 16.9171C3.49997 20.7524 3.49995 22.6701 4.55919 23.9608C4.75314 24.1972 4.96984 24.4138 5.20617 24.6079C6.4969 25.6671 8.41457 25.6671 12.2499 25.6671" stroke="#7C084B" stroke-width="1.75" stroke-linecap="round" stroke-linejoin="round"/>
<path d="M8.16675 8.16626H17.5001M8.16675 12.8329H12.8334" stroke="#7C084B" stroke-width="1.75" stroke-linecap="round" stroke-linejoin="round"/>
<path d="M21 21.5829L19.25 20.9413V18.0829M14 20.4163C14 23.3158 16.3505 25.6663 19.25 25.6663C22.1495 25.6663 24.5 23.3158 24.5 20.4163C24.5 17.5167 22.1495 15.1663 19.25 15.1663C16.3505 15.1663 14 17.5167 14 20.4163Z" fill="#F4E5EE"/>
<path d="M21 21.5829L19.25 20.9413V18.0829M14 20.4163C14 23.3158 16.3505 25.6663 19.25 25.6663C22.1495 25.6663 24.5 23.3158 24.5 20.4163C24.5 17.5167 22.1495 15.1663 19.25 15.1663C16.3505 15.1663 14 17.5167 14 20.4163Z" stroke="#7C084B" stroke-width="1.75" stroke-linecap="round" stroke-linejoin="round"/>
</svg>
