<svg width="24" height="24" viewBox="0 0 24 24" fill="none" xmlns="http://www.w3.org/2000/svg">
<g clip-path="url(#clip0_2016_427)">
<path d="M23.4 12C23.4 5.71221 18.2878 0.599976 12 0.599976C5.71225 0.599976 0.600006 5.71221 0.600006 12C0.600006 18.2877 5.71225 23.4 12 23.4C18.2878 23.4 23.4 18.2877 23.4 12ZM11.2322 15.9355L6.84 11.52C6.62438 11.3043 6.52781 11.04 6.52781 10.7522C6.52781 10.4644 6.62344 10.2 6.84 9.98436C7.24781 9.57655 7.94439 9.57655 8.3522 9.98436L12 13.6556L15.6477 10.0079C16.0555 9.60007 16.7521 9.60007 17.1599 10.0079C17.5677 10.4157 17.5677 11.1123 17.1599 11.5201L12.7677 15.9356C12.5755 16.1278 12.2877 16.2478 11.9999 16.2478C11.7121 16.2478 11.4477 16.1278 11.2321 15.9356L11.2322 15.9355Z" fill="#7C084B"/>
</g>
<defs>
<clipPath id="clip0_2016_427">
<rect width="24" height="24" fill="white"/>
</clipPath>
</defs>
</svg>
