<svg width="32" height="32" viewBox="0 0 32 32" fill="none" xmlns="http://www.w3.org/2000/svg">
<g clip-path="url(#clip0_248_505)">
<path d="M5.50013 15H26.5001C26.6327 15 26.7599 14.9473 26.8537 14.8536C26.9475 14.7598 27.0001 14.6326 27.0001 14.5V11C27.0002 10.8686 26.9745 10.7385 26.9243 10.6172C26.8741 10.4958 26.8005 10.3854 26.7076 10.2925L19.7076 3.2925C19.6147 3.19967 19.5044 3.12605 19.383 3.07586C19.2616 3.02568 19.1315 2.9999 19.0001 3H7.00013C6.4697 3 5.96099 3.21071 5.58592 3.58579C5.21084 3.96086 5.00013 4.46957 5.00013 5V14.5C5.00013 14.6326 5.05281 14.7598 5.14658 14.8536C5.24034 14.9473 5.36752 15 5.50013 15ZM19.0001 5.5L24.5001 11H19.0001V5.5ZM28.0001 19.0662C27.9778 19.3233 27.859 19.5624 27.6678 19.7355C27.4765 19.9087 27.2269 20.0032 26.9689 20H24.0001V22H25.9664C26.2244 21.9965 26.4743 22.0909 26.6656 22.2641C26.8569 22.4374 26.9755 22.6766 26.9976 22.9338C27.0067 23.0705 26.9876 23.2077 26.9414 23.3368C26.8952 23.4659 26.823 23.5841 26.7292 23.6841C26.6355 23.7841 26.5221 23.8637 26.3963 23.9181C26.2704 23.9724 26.1347 24.0003 25.9976 24H24.0001V25.9662C24.0036 26.2243 23.9092 26.4741 23.736 26.6655C23.5628 26.8568 23.3235 26.9754 23.0664 26.9975C22.9296 27.0066 22.7924 26.9874 22.6633 26.9413C22.5342 26.8951 22.416 26.8229 22.316 26.7291C22.2161 26.6353 22.1364 26.522 22.0821 26.3961C22.0277 26.2703 21.9998 26.1346 22.0001 25.9975V19C22.0001 18.7348 22.1055 18.4804 22.293 18.2929C22.4806 18.1054 22.7349 18 23.0001 18H27.0001C27.1372 17.9997 27.2729 18.0276 27.3988 18.0819C27.5246 18.1363 27.638 18.2159 27.7317 18.3159C27.8255 18.4159 27.8977 18.5341 27.9439 18.6632C27.9901 18.7923 28.0092 18.9295 28.0001 19.0662ZM8.00013 18H6.00013C5.73491 18 5.48056 18.1054 5.29302 18.2929C5.10549 18.4804 5.00013 18.7348 5.00013 19V25.9662C4.99602 26.2247 5.0901 26.4752 5.26339 26.667C5.43669 26.8589 5.6763 26.9779 5.93388 27C6.07067 27.0091 6.20786 26.9899 6.33694 26.9438C6.46602 26.8976 6.58422 26.8254 6.68422 26.7316C6.78421 26.6378 6.86385 26.5245 6.9182 26.3986C6.97254 26.2728 7.00043 26.1371 7.00013 26V25H7.92513C9.83013 25 11.4426 23.51 11.4989 21.6063C11.5131 21.1379 11.4331 20.6714 11.2637 20.2345C11.0943 19.7976 10.8388 19.3992 10.5125 19.0629C10.1862 18.7265 9.79571 18.4591 9.36414 18.2766C8.93257 18.094 8.46873 18 8.00013 18ZM7.95638 23H7.00013V20H8.00013C8.20993 19.999 8.4176 20.0421 8.60973 20.1263C8.80186 20.2106 8.97418 20.3343 9.11554 20.4893C9.2569 20.6443 9.36417 20.8273 9.43042 21.0264C9.49666 21.2254 9.52041 21.4362 9.50013 21.645C9.45649 22.022 9.27439 22.3694 8.98915 22.6197C8.70392 22.8701 8.33587 23.0056 7.95638 23ZM16.0001 18H14.0001C13.7349 18 13.4806 18.1054 13.293 18.2929C13.1055 18.4804 13.0001 18.7348 13.0001 19V26C13.0001 26.2652 13.1055 26.5196 13.293 26.7071C13.4806 26.8946 13.7349 27 14.0001 27H15.9151C18.3726 27 20.4414 25.065 20.4989 22.6087C20.5134 22.0088 20.4077 21.412 20.1882 20.8535C19.9686 20.2951 19.6396 19.7861 19.2204 19.3567C18.8012 18.9272 18.3003 18.586 17.7473 18.353C17.1943 18.12 16.6002 18 16.0001 18ZM15.9389 25H15.0001V20H16.0001C16.3367 19.9998 16.6698 20.0675 16.9796 20.1991C17.2894 20.3307 17.5694 20.5235 17.8028 20.7659C18.0363 21.0084 18.2184 21.2954 18.3382 21.61C18.458 21.9245 18.5131 22.2599 18.5001 22.5963C18.4476 23.9487 17.2926 25 15.9389 25Z" fill="#BC1A23"/>
</g>
<defs>
<clipPath id="clip0_248_505">
<rect width="32" height="32" fill="white"/>
</clipPath>
</defs>
</svg>
