<svg width="130" height="103" viewBox="0 0 130 103" fill="none" xmlns="http://www.w3.org/2000/svg">
<g clip-path="url(#clip0_2078_454)">
<path d="M31.2105 55.5203C30.1729 49.9674 31.8064 43.6501 36.3465 40.2889C36.0892 46.4266 38.0112 52.4575 41.7724 57.3145C43.2297 59.1824 45.0451 61.1082 44.9887 63.4767C44.9536 64.9504 44.1566 66.3233 43.1063 67.3576C42.0559 68.392 40.7621 69.1377 39.4837 69.8718L39.2847 70.1814C35.5372 65.9544 32.248 61.0731 31.2105 55.5203Z" fill="#869363"/>
<path d="M36.4292 40.3736C34.5218 44.6426 34.0079 49.404 34.9606 53.9817C35.1483 54.9708 35.4906 55.9241 35.9751 56.8066C36.4748 57.651 37.1915 58.3462 38.0508 58.82C38.8431 59.2778 39.7065 59.6543 40.3738 60.2968C40.7104 60.6307 40.9727 61.032 41.1433 61.4744C41.314 61.9168 41.3893 62.3902 41.3641 62.8637C41.3322 64.0452 40.8776 65.1447 40.3957 66.2045C39.8607 67.3812 39.2863 68.5949 39.321 69.9178C39.3252 70.0781 39.0762 70.0753 39.072 69.9152C39.0117 67.6136 40.6757 65.7651 41.0465 63.5565C41.2195 62.526 41.083 61.4371 40.3585 60.6382C39.7249 59.9397 38.8348 59.5507 38.0286 59.094C37.1836 58.6442 36.4616 57.9943 35.9257 57.201C35.3978 56.3461 35.0193 55.4075 34.8064 54.4255C34.2917 52.2224 34.1266 49.9521 34.3172 47.6977C34.5204 45.1237 35.1625 42.6033 36.2156 40.2457C36.2808 40.0998 36.4941 40.2287 36.4292 40.3736Z" fill="white"/>
<path d="M34.5673 52.5252C33.7776 52.5808 32.9938 52.3539 32.356 51.8849C31.7181 51.416 31.2678 50.7356 31.0853 49.9652C31.0489 49.8092 31.2896 49.7453 31.326 49.9015C31.4946 50.6192 31.9142 51.253 32.5091 51.6884C33.1039 52.1239 33.8349 52.3324 34.5699 52.2763C34.7297 52.2643 34.7262 52.5133 34.5673 52.5252Z" fill="white"/>
<path d="M37.6186 58.6411C38.6906 57.4288 39.2664 55.8569 39.231 54.239C39.2274 54.0787 39.4763 54.0815 39.4799 54.2416C39.5136 55.9253 38.9112 57.5599 37.7928 58.819C37.6861 58.939 37.5124 58.7604 37.6186 58.6411Z" fill="white"/>
<path d="M34.8123 45.278C35.1224 45.3201 35.438 45.2846 35.731 45.1746C36.0239 45.0647 36.2849 44.8836 36.4906 44.6479C36.5957 44.5266 36.7692 44.7053 36.6648 44.8257C36.4363 45.0852 36.1478 45.2847 35.8244 45.407C35.5011 45.5292 35.1527 45.5704 34.8097 45.5269C34.777 45.5255 34.7461 45.5117 34.7232 45.4884C34.7004 45.465 34.6872 45.4338 34.6865 45.4011C34.687 45.3682 34.7005 45.3367 34.7241 45.3137C34.7476 45.2906 34.7794 45.2778 34.8123 45.278Z" fill="white"/>
<path d="M54.913 44.8821C54.8496 44.9596 54.7861 45.0372 54.7231 45.1168C53.8751 46.164 53.1136 47.2784 52.446 48.449C52.393 48.5387 52.3405 48.6304 52.2902 48.7214C50.712 51.5587 49.6742 54.6644 49.2297 57.8805C49.054 59.1604 48.9759 60.4519 48.9962 61.7437C49.0242 63.5277 49.1966 65.4598 48.6497 67.1005C48.5946 67.2724 48.5289 67.4406 48.4529 67.6043L39.6777 70.4002C39.6546 70.3965 39.632 70.3949 39.6088 70.3913L39.2635 70.5189C39.2578 70.4524 39.2533 70.3832 39.2476 70.3167C39.2442 70.2781 39.2427 70.2389 39.2392 70.2003C39.2375 70.1743 39.2359 70.1484 39.2329 70.1251C39.2323 70.1165 39.2318 70.1078 39.2318 70.1012C39.2288 70.0779 39.2285 70.0559 39.2261 70.0346C39.2 69.6482 39.1759 69.2611 39.1559 68.8727C39.1552 68.8707 39.1552 68.8707 39.1565 68.8681C39.0059 65.9102 39.1009 62.9138 39.6477 60.027C39.6642 59.9402 39.6799 59.8513 39.7004 59.7632C39.9541 58.4634 40.3136 57.1864 40.7753 55.9451C41.0303 55.2663 41.3195 54.6007 41.6418 53.9511C42.4778 52.2742 43.5724 50.7391 44.8855 49.4023C47.5034 46.7378 50.9443 44.9402 54.6313 44.8836C54.7256 44.8822 54.8181 44.8814 54.913 44.8821Z" fill="#869363"/>
<path d="M54.9288 44.9995C50.8356 47.2596 47.5586 50.752 45.5632 54.9806C45.1175 55.8833 44.8169 56.8506 44.6724 57.8469C44.563 58.822 44.7167 59.8086 45.1175 60.7042C45.4745 61.5467 45.9372 62.3672 46.0832 63.2819C46.1509 63.7512 46.1187 64.2295 45.9887 64.6855C45.8586 65.1415 45.6336 65.5648 45.3284 65.9277C44.5916 66.8518 43.5667 67.456 42.5439 68.0121C41.4082 68.6295 40.2188 69.2528 39.4501 70.33C39.3569 70.4605 39.1598 70.3083 39.2528 70.178C40.5904 68.3039 43.032 67.8298 44.6577 66.2897C45.4163 65.571 45.9629 64.6194 45.8654 63.5453C45.7801 62.6061 45.3037 61.7596 44.9348 60.9096C44.531 60.0417 44.3458 59.0881 44.3955 58.1321C44.4888 57.1316 44.7517 56.1543 45.1728 55.2421C46.0883 53.1732 47.3234 51.2611 48.8328 49.5758C50.5449 47.6429 52.5749 46.0171 54.8352 44.7687C54.9752 44.6915 55.0678 44.9228 54.9288 44.9995Z" fill="white"/>
<path d="M46.1257 53.5813C45.4616 53.1502 44.9725 52.4971 44.7455 51.7386C44.5186 50.9802 44.5686 50.1658 44.8867 49.4408C44.9516 49.2943 45.1823 49.3883 45.1173 49.5349C44.8198 50.2095 44.7733 50.9681 44.9861 51.6739C45.1989 52.3798 45.6569 52.9863 46.2776 53.3841C46.4124 53.4707 46.2597 53.6674 46.1257 53.5813Z" fill="white"/>
<path d="M44.8803 60.3007C46.4661 59.9782 47.8722 59.0698 48.8181 57.7566C48.9117 57.6264 49.1088 57.7786 49.0153 57.9086C48.0284 59.2732 46.5633 60.2156 44.9122 60.5476C44.7549 60.5791 44.7237 60.332 44.8803 60.3007Z" fill="white"/>
<path d="M50.6847 47.9417C50.9069 48.162 51.1803 48.3237 51.4804 48.4123C51.7805 48.5008 52.0979 48.5134 52.4041 48.449C52.561 48.4155 52.592 48.6626 52.4361 48.6959C52.0975 48.7655 51.7469 48.7511 51.4152 48.654C51.0834 48.5569 50.7804 48.3801 50.5327 48.1389C50.5075 48.1181 50.4911 48.0885 50.4869 48.056C50.4827 48.0236 50.491 47.9908 50.5101 47.9643C50.5304 47.9383 50.5601 47.9213 50.5928 47.9171C50.6255 47.9128 50.6585 47.9217 50.6847 47.9417Z" fill="white"/>
<path d="M68.6972 14.5162C68.7266 14.6454 68.7458 14.7768 68.7545 14.909L79.0432 20.8445L81.544 19.4049L84.21 22.895L80.0305 25.8739C79.6929 26.1146 79.2863 26.2392 78.8717 26.2291C78.4572 26.219 78.0572 26.0747 77.7317 25.8179L67.1223 17.4481C66.6435 17.6253 66.1221 17.6526 65.6274 17.5263C65.1327 17.3999 64.6882 17.126 64.353 16.7409C64.0179 16.3558 63.8079 15.8777 63.751 15.3704C63.6941 14.863 63.7931 14.3503 64.0347 13.9006C64.2763 13.4508 64.6491 13.0853 65.1035 12.8525C65.5579 12.6198 66.0725 12.531 66.5786 12.5978C67.0848 12.6646 67.5586 12.884 67.937 13.2267C68.3155 13.5694 68.5806 14.0191 68.6972 14.5162Z" fill="#EFD4CB"/>
<path d="M79.186 20.1899C79.2186 20.0385 79.2836 19.896 79.3763 19.7719C79.4691 19.6479 79.5875 19.5454 79.7235 19.4713L84.4736 16.8832C85.1062 16.4057 85.9023 16.1987 86.6873 16.3073C87.4723 16.416 88.1822 16.8316 88.6613 17.4629C89.1403 18.0942 89.3495 18.8898 89.2428 19.6751C89.1362 20.4604 88.7225 21.1713 88.0924 21.652L84.2853 25.5196C84.1767 25.6299 84.0455 25.7156 83.9008 25.7707C83.756 25.8258 83.6011 25.8491 83.4466 25.8389C83.292 25.8287 83.1415 25.7854 83.0052 25.7118C82.8689 25.6382 82.7501 25.5361 82.6568 25.4124L79.379 21.0665C79.2857 20.9429 79.2201 20.8006 79.1868 20.6493C79.1535 20.498 79.1532 20.3413 79.186 20.1899Z" fill="#3F3D56"/>
<path d="M87.672 5.14298C88.3555 2.96488 89.9097 0.967196 92.059 0.230878C94.2085 -0.505439 97.356 0.616211 98.9719 2.22669C101.928 5.17259 102.649 15.2928 100.618 18.4909C100.214 18.4695 98.8206 18.4537 98.4117 18.4384L97.8334 16.5108V18.4194C94.6424 18.3208 91.3202 18.3825 87.9963 18.4464C87.6983 16.1821 86.9886 7.32109 87.672 5.14298Z" fill="#2F2E41"/>
<path d="M86.7576 96.5691H83.8472L82.4626 85.3427L86.7583 85.3429L86.7576 96.5691Z" fill="#EFD4CB"/>
<path d="M112.236 94.7588L109.42 95.4928L105.248 84.9787L109.405 83.8955L112.236 94.7588Z" fill="#EFD4CB"/>
<path d="M96.1968 27.6181L96.8564 29.3328L96.7244 31.0474L83.8176 35.5178L84.4581 28.0138L85.9088 26.299L96.1968 27.6181Z" fill="#EFD4CB"/>
<path d="M92.1162 12.1884C94.6621 12.1884 96.726 10.1245 96.726 7.57858C96.726 5.03264 94.6621 2.96875 92.1162 2.96875C89.5702 2.96875 87.5063 5.03264 87.5063 7.57858C87.5063 10.1245 89.5702 12.1884 92.1162 12.1884Z" fill="#EFD4CB"/>
<path d="M88.9485 1.57478C89.8342 1.03479 90.8488 0.742694 91.8861 0.729019C92.9234 0.715344 93.9453 0.980596 94.845 1.49704C95.7446 2.01349 96.4891 2.76216 97.0004 3.66478C97.5117 4.56739 97.7711 5.5908 97.7515 6.62799C95.2387 7.27024 92.5608 7.53887 89.7231 6.78267L89.0745 5.19511L88.6921 6.78384C87.8239 7.39453 86.986 7.39343 86.1783 6.78054C86.144 5.74628 86.3819 4.72115 86.868 3.80761C87.3541 2.89408 88.0715 2.12415 88.9485 1.57478Z" fill="#2F2E41"/>
<path d="M88.0597 102.095H85.9944L85.6258 100.145L84.6816 102.095H79.204C78.9415 102.095 78.6858 102.011 78.4743 101.856C78.2628 101.7 78.1066 101.481 78.0284 101.23C77.9503 100.98 77.9543 100.711 78.04 100.462C78.1256 100.214 78.2883 99.9998 78.5044 99.8507L82.8786 96.8296V94.8584L87.4795 95.133L88.0597 102.095Z" fill="#2F2E41"/>
<path d="M115.145 99.7118L113.147 100.233L112.298 98.439L111.877 100.564L106.576 101.946C106.322 102.012 106.053 101.995 105.81 101.898C105.566 101.801 105.359 101.628 105.22 101.405C105.082 101.182 105.018 100.921 105.038 100.659C105.058 100.397 105.161 100.149 105.333 99.95L108.804 95.9234L108.307 94.0159L112.828 93.1211L115.145 99.7118Z" fill="#2F2E41"/>
<path d="M111.879 87.6997L103.348 70.1651L100.669 48.8234C102.516 45.3941 99.0867 38.4161 99.0867 38.4161V35.4863L85.8024 37.9925C83.0854 45.4032 81.7678 53.254 81.9167 61.1458L82.4519 89.5149H82.284C82.0054 89.5149 81.7382 89.6256 81.5411 89.8227C81.3441 90.0197 81.2334 90.2869 81.2334 90.5656C81.2334 90.8442 81.3441 91.1114 81.5411 91.3085C81.7382 91.5055 82.0054 91.6162 82.284 91.6162H87.5372C87.8158 91.6162 88.0831 91.5055 88.2801 91.3085C88.4771 91.1114 88.5878 90.8442 88.5878 90.5656C88.5878 90.2869 88.4771 90.0197 88.2801 89.8227C88.0831 89.6256 87.8158 89.5149 87.5372 89.5149H87.4017L91.1729 53.4243L95.5578 71.2341L106.154 87.6323C105.884 87.6533 105.632 87.7783 105.452 87.981C105.272 88.1837 105.178 88.4482 105.189 88.7191C105.2 88.99 105.315 89.2462 105.511 89.4337C105.706 89.6213 105.967 89.7257 106.238 89.7251H111.492C111.736 89.7253 111.973 89.6403 112.161 89.4847C112.349 89.3291 112.478 89.1127 112.524 88.8727C112.569 88.6327 112.53 88.3843 112.413 88.1701C112.295 87.956 112.106 87.7896 111.879 87.6997Z" fill="#2F2E41"/>
<path d="M100.288 40.2113C100.244 40.0399 100.147 39.8867 100.011 39.7736C99.8752 39.6606 99.7068 39.5935 99.5302 39.5821C99.3551 37.5801 98.1982 24.7411 98.1542 24.3644L98.1524 24.3485L97.8174 17.1921C97.8053 16.9322 97.6978 16.6859 97.5155 16.5002C97.3332 16.3145 97.089 16.2025 96.8293 16.1855L95.0599 16.0698C95.0356 16.069 95.0126 16.0588 94.9957 16.0414C94.9788 16.0239 94.9694 16.0006 94.9694 15.9763C94.9694 15.7809 94.9309 15.5874 94.8561 15.4068C94.7814 15.2263 94.6718 15.0623 94.5336 14.9241C94.3954 14.7859 94.2314 14.6763 94.0509 14.6016C93.8703 14.5268 93.6768 14.4883 93.4814 14.4883H88.2427C87.9034 14.4884 87.5758 14.6124 87.3214 14.8369C87.067 15.0615 86.9033 15.3711 86.861 15.7078C86.8587 15.731 86.8477 15.7524 86.8303 15.7679C86.8128 15.7833 86.7902 15.7916 86.7669 15.7911L86.7663 15.791C86.171 15.7788 85.5911 15.9803 85.1317 16.3591C84.6723 16.7378 84.3639 17.2687 84.2625 17.8554C83.5463 22.0224 82.111 31.48 82.8207 36.7378C83.0677 38.5682 82.9554 41.321 82.862 42.8524C82.8527 43.0004 82.8727 43.1488 82.9209 43.2891C82.969 43.4293 83.0444 43.5587 83.1426 43.6697C82.9337 43.73 82.7563 43.869 82.6479 44.0574C82.5395 44.2459 82.5084 44.4691 82.5614 44.68C82.6158 44.8961 82.754 45.0818 82.9453 45.1961C83.1367 45.3104 83.3657 45.344 83.5818 45.2895L99.6782 41.2318C99.8944 41.1773 100.08 41.0392 100.194 40.8478C100.309 40.6565 100.342 40.4275 100.288 40.2113Z" fill="#D2D4CD"/>
<path d="M73.6846 70.2982C73.6816 69.8283 73.5123 69.3746 73.2067 69.0176C72.901 68.6606 72.4789 68.4233 72.015 68.3479L43.4768 63.6616C43.2032 63.6163 42.9231 63.6287 42.6545 63.6981L35.9664 65.4275L32.129 66.4209L25.0471 68.2516C24.6196 68.3626 24.2411 68.6124 23.9708 68.9617C23.7005 69.3111 23.5538 69.7402 23.5537 70.1819V100.086C23.5558 100.542 23.7134 100.983 24.0003 101.338C24.2872 101.692 24.6864 101.938 25.1319 102.035L54.2 101.705C54.3365 101.735 54.4758 101.749 54.6153 101.749C54.8187 101.749 55.021 101.718 55.2151 101.657L72.4852 102.087C72.8927 101.96 73.2484 101.705 73.4995 101.359C73.7506 101.014 73.8836 100.597 73.8789 100.17L73.6846 70.2982Z" fill="white"/>
<path d="M73.6846 70.2982C73.6816 69.8283 73.5123 69.3746 73.2067 69.0176C72.901 68.6605 72.4789 68.4233 72.015 68.3479L43.4768 63.6616C43.2032 63.6163 42.9231 63.6287 42.6545 63.6981L35.9664 65.4275L32.129 66.4209L25.0471 68.2516C24.6196 68.3626 24.2411 68.6124 23.9708 68.9617C23.7005 69.3111 23.5538 69.7402 23.5537 70.1819V100.086C23.5558 100.542 23.7134 100.983 24.0003 101.338C24.2872 101.692 24.6864 101.938 25.1319 102.035L54.2 101.705C54.3365 101.735 54.4758 101.749 54.6153 101.749C54.8187 101.749 55.021 101.718 55.215 101.657L72.4852 102.087C72.8927 101.96 73.2484 101.705 73.4995 101.359C73.7506 101.014 73.8836 100.597 73.8789 100.17L73.6846 70.2982ZM72.3357 101.612L55.0655 102.023C54.8192 102.099 54.5573 102.112 54.3047 102.059L25.2349 101.548C24.9009 101.475 24.6017 101.29 24.3866 101.025C24.1716 100.759 24.0536 100.428 24.0521 100.086V70.1819C24.0523 69.8758 24.1464 69.5771 24.3216 69.3261C24.4969 69.0751 24.7449 68.8838 25.0322 68.7782C25.0778 68.761 25.1244 68.7466 25.1717 68.735L32.6639 66.798L37.0944 65.6517L42.7791 64.1816C42.901 64.149 43.0267 64.1328 43.1529 64.1334C43.2341 64.1333 43.3152 64.14 43.3954 64.1533L71.9336 68.8396C72.1633 68.8773 72.381 68.9679 72.5696 69.1043C72.7581 69.2407 72.9124 69.4191 73.0201 69.6254C73.1279 69.8346 73.1848 70.0662 73.1862 70.3015L73.3806 100.173C73.3842 100.493 73.2845 100.806 73.0962 101.065C72.908 101.325 72.6413 101.516 72.3357 101.612Z" fill="#CCCCCC"/>
<path d="M73.0201 69.6248C73.0007 69.6375 72.9794 69.647 72.957 69.653L64.5628 71.9222L61.9497 72.6283L54.5174 74.6367C54.4962 74.6419 54.4744 74.6447 54.4526 74.645C54.4376 74.6447 54.4226 74.6436 54.4077 74.6417L24.4392 69.1779L24.3395 69.1596C24.2746 69.1474 24.2172 69.11 24.1797 69.0556C24.1423 69.0011 24.1279 68.9341 24.1398 68.8691C24.1517 68.8041 24.1888 68.7465 24.243 68.7088C24.2972 68.6711 24.3642 68.6564 24.4292 68.6679L25.0323 68.7775L54.4426 74.14L60.8483 72.409L64.4316 71.4405L72.6962 69.2061L72.8274 69.1713C72.8842 69.1563 72.9443 69.1617 72.9975 69.1866C73.0506 69.2115 73.0933 69.2543 73.1181 69.3075C73.1246 69.3202 73.1296 69.3335 73.1331 69.3473C73.1468 69.3996 73.1432 69.4548 73.1228 69.5049C73.1024 69.5549 73.0664 69.5969 73.0201 69.6248Z" fill="#CCCCCC"/>
<path d="M54.7018 101.807C54.5652 101.807 54.4539 101.697 54.4526 102.4L54.2034 75.2393C54.2021 74.2612 54.3127 74.1486 54.4503 74.1473H54.4526C54.5892 74.1473 54.7005 74.2573 54.7018 75.2348L54.9509 102.396C54.9522 101.693 54.8416 101.805 54.704 101.807H54.7018Z" fill="#CCCCCC"/>
<path d="M64.6336 101.122L61.9498 101.151L60.8484 71.4099L32.7455 65.8182C32.7179 65.8133 32.6907 65.8066 32.6641 65.7982C32.4482 65.7368 32.2596 65.6038 32.1292 65.4212L35.9666 64.4277L37.0946 64.652L63.7606 69.9563C63.9008 69.984 64.0334 70.0417 64.1492 70.1254C64.2651 70.2091 64.3614 70.3169 64.4317 70.4414C64.5148 70.5859 64.6319 100.949 64.6336 101.122Z" fill="#CCCCCC"/>
<path d="M86.1299 15.8628C86.1277 15.5086 86.0001 15.1667 85.7697 14.8976C85.5394 14.6285 85.2212 14.4498 84.8717 14.3929L63.3637 10.8611C63.1575 10.8269 62.9464 10.8363 62.744 10.8886L57.7035 12.1919L54.8114 12.9406L49.4742 14.3203C49.152 14.404 48.8667 14.5922 48.663 14.8555C48.4593 15.1188 48.3487 15.4422 48.3486 15.7751V33.4031C48.3502 33.7467 48.469 34.0795 48.6852 34.3465C48.9014 34.6135 49.2023 34.7987 49.538 34.8717L71.4453 39.5329C71.5482 39.555 71.6531 39.5659 71.7583 39.5654C71.9116 39.5657 72.064 39.5425 72.2103 39.4966L85.226 35.3863C85.5331 35.2904 85.8012 35.0981 85.9905 34.8378C86.1797 34.5776 86.28 34.2632 86.2764 33.9415L86.1299 15.8628Z" fill="white"/>
<path d="M63.1203 12.1563C63.1046 12.1562 63.089 12.1582 63.0738 12.1622L49.8039 15.594C49.7637 15.6044 49.728 15.6279 49.7026 15.6607C49.6771 15.6936 49.6633 15.734 49.6633 15.7755V33.4033C49.6635 33.4462 49.6783 33.4878 49.7053 33.5212C49.7323 33.5545 49.7699 33.5777 49.8118 33.5868L71.7191 38.2479C71.7509 38.2546 71.7838 38.2529 71.8147 38.2432L84.8307 34.1331C84.869 34.1211 84.9025 34.0971 84.9261 34.0646C84.9497 34.032 84.9621 33.9928 84.9616 33.9526L84.8157 15.874C84.8154 15.8297 84.7995 15.787 84.7707 15.7534C84.7419 15.7198 84.7022 15.6975 84.6585 15.6904L63.1506 12.1587C63.1406 12.1571 63.1305 12.1563 63.1203 12.1563Z" fill="#BBCE87"/>
<path d="M86.1299 15.8628C86.1277 15.5086 86.0001 15.1667 85.7697 14.8976C85.5394 14.6285 85.2212 14.4498 84.8717 14.3929L63.3637 10.8611C63.1575 10.8269 62.9464 10.8363 62.744 10.8886L57.7035 12.1919L54.8114 12.9406L49.4742 14.3203C49.152 14.404 48.8667 14.5922 48.663 14.8555C48.4593 15.1188 48.3487 15.4422 48.3486 15.7751V33.4031C48.3502 33.7467 48.469 34.0795 48.6852 34.3465C48.9014 34.6135 49.2023 34.7987 49.538 34.8717L71.4453 39.5329C71.5482 39.555 71.6531 39.5659 71.7583 39.5654C71.9116 39.5657 72.064 39.5425 72.2103 39.4966L85.226 35.3863C85.5331 35.2904 85.8012 35.0981 85.9905 34.8378C86.1797 34.5776 86.28 34.2632 86.2764 33.9415L86.1299 15.8628ZM85.1133 35.0282L72.0976 39.1385C71.9119 39.1963 71.7146 39.2058 71.5242 39.166L49.6156 34.5049C49.3639 34.45 49.1384 34.3109 48.9764 34.1106C48.8143 33.9103 48.7254 33.6608 48.7242 33.4031V15.7751C48.7244 15.5444 48.7953 15.3193 48.9274 15.1301C49.0595 14.941 49.2464 14.7968 49.4629 14.7172C49.4973 14.7043 49.5324 14.6934 49.5681 14.6846L55.2145 13.2248L58.5536 12.361L62.8379 11.2529C62.9298 11.2284 63.0245 11.2162 63.1196 11.2166C63.1808 11.2166 63.242 11.2216 63.3024 11.2317L84.8103 14.7635C84.9834 14.7919 85.1475 14.8602 85.2896 14.963C85.4317 15.0658 85.548 15.2002 85.6291 15.3557C85.7104 15.5134 85.7533 15.6879 85.7543 15.8653L85.9008 33.944C85.9035 34.1854 85.8284 34.4212 85.6865 34.6165C85.5447 34.8117 85.3437 34.9561 85.1133 35.0282Z" fill="#3F3D56"/>
<path d="M85.6292 15.3559C85.6145 15.3655 85.5985 15.3727 85.5816 15.3772L79.2553 17.0874L77.2859 17.6195L71.6845 19.1331C71.6685 19.1371 71.6521 19.1392 71.6357 19.1394C71.6244 19.1392 71.6131 19.1384 71.6019 19.1369L49.016 15.0191L48.9409 15.0053C48.8919 14.9962 48.8485 14.968 48.8203 14.927C48.7921 14.8859 48.7812 14.8354 48.7902 14.7864C48.7991 14.7374 48.8271 14.6939 48.868 14.6655C48.9089 14.6371 48.9594 14.626 49.0085 14.6347L49.4629 14.7174L71.6282 18.7588L76.4558 17.4542L79.1564 16.7243L85.385 15.0404L85.4839 15.0141C85.5267 15.0028 85.572 15.0069 85.6121 15.0257C85.6521 15.0445 85.6843 15.0767 85.703 15.1168C85.7079 15.1263 85.7116 15.1364 85.7143 15.1468C85.7246 15.1862 85.7219 15.2278 85.7065 15.2655C85.6912 15.3032 85.664 15.3349 85.6292 15.3559Z" fill="#3F3D56"/>
<path d="M71.8236 39.6092C71.7741 39.6092 71.7266 39.5896 71.6914 39.5548C71.6562 39.5199 71.6363 39.4726 71.6358 39.4231L71.448 18.9531C71.4476 18.9033 71.4669 18.8553 71.5018 18.8198C71.5367 18.7842 71.5843 18.764 71.6341 18.7635H71.6358C71.6853 18.7635 71.7328 18.7831 71.768 18.8179C71.8032 18.8528 71.8231 18.9001 71.8236 18.9496L72.0114 39.4197C72.0118 39.4695 71.9925 39.5174 71.9576 39.5529C71.9227 39.5885 71.8751 39.6087 71.8253 39.6092H71.8236Z" fill="#3F3D56"/>
<path d="M79.2554 37.1195L77.286 37.6516L76.4559 17.4545L55.276 13.2403C55.2553 13.2366 55.2348 13.2316 55.2147 13.2253C55.052 13.1789 54.9098 13.0787 54.8115 12.9411L57.7036 12.1924L58.5537 12.3614L78.6507 16.359C78.7563 16.3799 78.8563 16.4233 78.9436 16.4864C79.0309 16.5495 79.1035 16.6308 79.1565 16.7246C79.2191 16.8335 79.2541 36.9893 79.2554 37.1195Z" fill="#3F3D56"/>
<path d="M78.3731 25.6038C78.4738 25.6899 78.5676 25.7839 78.6535 25.8848L90.4513 24.5069L91.5987 21.8593L95.8208 23.0686L94.2451 27.9532C94.1178 28.3478 93.8659 28.6905 93.5273 28.9298C93.1887 29.169 92.7816 29.292 92.3671 29.2802L78.8592 28.8962C78.5807 29.3242 78.1786 29.6573 77.7063 29.8511C77.234 30.045 76.7139 30.0905 76.2151 29.9815C75.7163 29.8725 75.2625 29.6143 74.9141 29.2411C74.5657 28.8679 74.3391 28.3975 74.2645 27.8925C74.1899 27.3874 74.2709 26.8716 74.4967 26.4136C74.7224 25.9557 75.0822 25.5774 75.5282 25.3289C75.9742 25.0805 76.4853 24.9737 76.9935 25.0228C77.5017 25.0719 77.9829 25.2745 78.3731 25.6038Z" fill="#EFD4CB"/>
<path d="M90.1749 23.8956C90.1107 23.7547 90.0777 23.6015 90.0781 23.4466C90.0785 23.2918 90.1124 23.1388 90.1773 22.9982L92.4441 18.0866C92.6667 17.3261 93.1819 16.6849 93.8767 16.3036C94.5714 15.9224 95.3889 15.8322 96.1501 16.0528C96.9112 16.2734 97.5538 16.7869 97.9369 17.4806C98.32 18.1743 98.4124 18.9916 98.1938 19.7533L97.4473 25.1287C97.426 25.2821 97.3718 25.4291 97.2886 25.5597C97.2053 25.6903 97.0949 25.8014 96.9648 25.8855C96.8348 25.9696 96.6881 26.0246 96.5348 26.0469C96.3816 26.0692 96.2253 26.0582 96.0767 26.0147L90.8529 24.4838C90.7042 24.4403 90.5667 24.3652 90.4497 24.2637C90.3327 24.1622 90.239 24.0367 90.1749 23.8956Z" fill="#D2D4CD"/>
<path d="M25.2387 75.7557C29.3946 75.7557 32.7635 72.3867 32.7635 68.2309C32.7635 64.075 29.3946 60.7061 25.2387 60.7061C21.0829 60.7061 17.7139 64.075 17.7139 68.2309C17.7139 72.3867 21.0829 75.7557 25.2387 75.7557Z" fill="#BBCE87"/>
<path d="M24.2124 72.1475C24.0824 72.1475 23.9542 72.1172 23.838 72.0591C23.7218 72.001 23.6207 71.9166 23.5428 71.8126L21.4899 69.0753C21.3567 68.8977 21.2995 68.6745 21.3309 68.4548C21.3623 68.235 21.4797 68.0367 21.6573 67.9035C21.8349 67.7704 22.0582 67.7132 22.2779 67.7446C22.4977 67.776 22.696 67.8934 22.8292 68.071L24.1722 69.8616L27.6217 64.6874C27.6825 64.5956 27.7609 64.5166 27.8523 64.4551C27.9436 64.3936 28.0462 64.3508 28.1542 64.329C28.2622 64.3072 28.3734 64.307 28.4814 64.3283C28.5895 64.3496 28.6923 64.392 28.784 64.4531C28.8756 64.5142 28.9543 64.5928 29.0155 64.6843C29.0767 64.7759 29.1193 64.8786 29.1407 64.9867C29.1621 65.0947 29.162 65.2059 29.1404 65.3139C29.1188 65.4219 29.076 65.5246 29.0147 65.616L24.9089 71.7747C24.8346 71.8861 24.7347 71.978 24.6176 72.0429C24.5004 72.1077 24.3695 72.1434 24.2356 72.1472C24.2279 72.1473 24.2201 72.1475 24.2124 72.1475Z" fill="white"/>
<path d="M57.2794 28.2626C57.256 28.2625 57.2326 28.2599 57.2098 28.2548L50.6959 26.7839C50.6144 26.7654 50.5436 26.7153 50.4991 26.6447C50.4545 26.574 50.4398 26.4886 50.4582 26.4071C50.4765 26.3256 50.5265 26.2548 50.5971 26.2101C50.6677 26.1654 50.7531 26.1506 50.8346 26.1689L57.3485 27.6398C57.4241 27.6569 57.4908 27.7012 57.5358 27.7644C57.5808 27.8275 57.6009 27.905 57.5924 27.9821C57.5838 28.0591 57.5472 28.1303 57.4894 28.1821C57.4317 28.2338 57.3569 28.2625 57.2794 28.2626Z" fill="white"/>
<path d="M32.2098 87.463C32.1869 87.4677 32.1635 87.4699 32.1401 87.4695L25.4631 87.3571C25.3797 87.3555 25.3002 87.3209 25.2422 87.2608C25.1843 87.2008 25.1525 87.1201 25.1539 87.0367C25.1552 86.9532 25.1897 86.8737 25.2496 86.8156C25.3096 86.7574 25.3901 86.7255 25.4736 86.7267L32.1506 86.8392C32.2281 86.8405 32.3024 86.8703 32.3593 86.923C32.4162 86.9756 32.4517 87.0474 32.4591 87.1246C32.4664 87.2018 32.445 87.2789 32.3991 87.3414C32.3531 87.4038 32.2857 87.4471 32.2098 87.463Z" fill="#E6E6E6"/>
<path d="M34.5213 91.0351C34.4984 91.0398 34.475 91.042 34.4516 91.0417L27.7747 90.9292C27.6912 90.9277 27.6117 90.893 27.5538 90.833C27.4958 90.7729 27.464 90.6923 27.4654 90.6088C27.4668 90.5253 27.5012 90.4458 27.5612 90.3877C27.6211 90.3296 27.7017 90.2976 27.7851 90.2989L34.4621 90.4113C34.5396 90.4126 34.6139 90.4425 34.6709 90.4951C34.7278 90.5478 34.7633 90.6195 34.7706 90.6967C34.7779 90.7739 34.7566 90.8511 34.7106 90.9135C34.6646 90.9759 34.5972 91.0192 34.5213 91.0351Z" fill="#E6E6E6"/>
</g>
<defs>
<clipPath id="clip0_2078_454">
<rect width="130" height="102.4" fill="white"/>
</clipPath>
</defs>
</svg>
