<svg width="20" height="20" viewBox="0 0 20 20" fill="none" xmlns="http://www.w3.org/2000/svg">
<g clip-path="url(#clip0_2010_424)">
<path d="M9.99999 -0.0150146C4.46153 -0.0150146 -0.0149307 4.46145 -0.0149307 9.99991C-0.0149307 15.5384 4.46153 20.0148 9.99999 20.0148C15.5385 20.0148 20.0149 15.5384 20.0149 9.99991C20.0149 4.46145 15.5385 -0.0150146 9.99999 -0.0150146V-0.0150146ZM14.8461 7.92299L8.91561 13.8311C8.73081 14.0159 8.50004 14.1079 8.26927 14.1079C8.0385 14.1079 7.78428 14.0159 7.62293 13.8311L4.69239 10.923C4.32279 10.5534 4.32279 9.97646 4.69239 9.60779C5.06199 9.23819 5.63891 9.23819 6.00759 9.60779L8.26931 11.8695L13.5311 6.60774C13.9007 6.23814 14.4776 6.23814 14.8463 6.60774C15.1924 6.97644 15.1924 7.57679 14.8463 7.92294L14.8461 7.92299Z" fill="#1EA41D"/>
</g>
<defs>
<clipPath id="clip0_2010_424">
<rect width="20" height="20" fill="white"/>
</clipPath>
</defs>
</svg>
