<svg width="130" height="116" viewBox="0 0 130 116" fill="none" xmlns="http://www.w3.org/2000/svg">
<g clip-path="url(#clip0_2078_431)">
<path d="M0.728457 26.0292C0.473897 26.1007 0.258128 26.2699 0.128487 26.4997C-0.00115528 26.7296 -0.0340867 27.0014 0.0369177 27.2554L16.7113 86.6473C16.7829 86.9012 16.9525 87.1164 17.183 87.2457C17.4135 87.375 17.6859 87.4079 17.9407 87.337L79.4107 70.1704C79.6653 70.099 79.881 69.9298 80.0107 69.7C80.1403 69.4701 80.1732 69.1983 80.1023 68.9443L63.4279 9.55234C63.3563 9.29845 63.1867 9.08325 62.9562 8.95395C62.7257 8.82465 62.4532 8.79181 62.1985 8.86262L0.728457 26.0292Z" fill="#E6E6E6"/>
<path d="M18.7132 84.5324L77.2903 68.1737L61.426 11.667L2.84888 28.0257L18.7132 84.5324Z" fill="white"/>
<path d="M10.5935 35.5716C10.2027 35.6807 10.0415 36.3282 10.2343 37.0148C10.4271 37.7014 10.9019 38.1713 11.2927 38.0622L38.0089 30.6012C38.3997 30.4921 38.5608 29.8446 38.368 29.158C38.1752 28.4713 37.7004 28.0015 37.3096 28.1106L10.5935 35.5716Z" fill="#E6E6E6"/>
<path d="M12.7448 43.2355C12.354 43.3446 12.1929 43.9921 12.3857 44.6787C12.5784 45.3654 13.0533 45.8353 13.4441 45.7261L40.1602 38.2652C40.551 38.156 40.7122 37.5085 40.5194 36.8219C40.3266 36.1353 39.8518 35.6654 39.461 35.7745L12.7448 43.2355Z" fill="#E6E6E6"/>
<path d="M14.8718 50.809C14.481 50.9181 14.3198 51.5656 14.5126 52.2522C14.7054 52.9389 15.1802 53.4087 15.571 53.2996L42.2872 45.8386C42.678 45.7295 42.8391 45.082 42.6463 44.3954C42.4536 43.7087 41.9787 43.2389 41.5879 43.348L14.8718 50.809Z" fill="#E6E6E6"/>
<path d="M17.0232 58.4728C16.6323 58.5819 16.4712 59.2294 16.664 59.916C16.8568 60.6027 17.3316 61.0726 17.7224 60.9634L44.4385 53.5025C44.8294 53.3933 44.9905 52.7458 44.7977 52.0592C44.6049 51.3726 44.1301 50.9027 43.7393 51.0118L17.0232 58.4728Z" fill="#E6E6E6"/>
<path d="M50.8676 24.4114C50.7035 24.4571 50.55 24.5345 50.4159 24.6394C50.2818 24.7442 50.1697 24.8744 50.0861 25.0225C50.0024 25.1706 49.9489 25.3336 49.9285 25.5024C49.9081 25.6711 49.9213 25.8422 49.9672 26.0058C50.0132 26.1695 50.091 26.3225 50.1963 26.4562C50.3016 26.5898 50.4322 26.7014 50.5808 26.7847C50.7294 26.8679 50.8929 26.9211 51.0621 26.9412C51.2313 26.9614 51.4028 26.9481 51.5669 26.9021L56.5613 25.5073C56.8925 25.4148 57.1732 25.1949 57.3418 24.896C57.5104 24.597 57.553 24.2435 57.4603 23.9133C57.3676 23.583 57.1471 23.303 56.8474 23.1348C56.5477 22.9667 56.1932 22.9242 55.8621 23.0167L50.8676 24.4114Z" fill="#E6E6E6"/>
<path d="M52.9775 31.9271C52.8134 31.9727 52.6598 32.0502 52.5257 32.155C52.3916 32.2599 52.2796 32.39 52.1959 32.5381C52.1123 32.6862 52.0588 32.8493 52.0384 33.018C52.018 33.1867 52.0311 33.3578 52.0771 33.5215C52.123 33.6851 52.2009 33.8382 52.3061 33.9718C52.4114 34.1054 52.5421 34.217 52.6907 34.3003C52.8392 34.3835 53.0028 34.4367 53.172 34.4569C53.3412 34.477 53.5127 34.4637 53.6768 34.4177L58.6712 33.0229C59.0023 32.9304 59.2831 32.7105 59.4517 32.4116C59.6203 32.1127 59.6629 31.7592 59.5702 31.4289C59.4775 31.0986 59.257 30.8186 58.9573 30.6505C58.6575 30.4823 58.3031 30.4398 57.972 30.5323L52.9775 31.9271Z" fill="#E6E6E6"/>
<path d="M55.0874 39.4427C54.9234 39.4885 54.7701 39.566 54.6362 39.6709C54.5023 39.7758 54.3904 39.906 54.3069 40.054C54.2234 40.202 54.17 40.365 54.1497 40.5336C54.1293 40.7022 54.1425 40.8732 54.1884 41.0367C54.2343 41.2002 54.3121 41.3531 54.4172 41.4867C54.5224 41.6203 54.6529 41.7319 54.8013 41.8151C54.9497 41.8984 55.1131 41.9517 55.2822 41.972C55.4513 41.9922 55.6227 41.9791 55.7866 41.9333L60.7811 40.5385C61.1122 40.446 61.393 40.2261 61.5616 39.9272C61.7302 39.6283 61.7728 39.2748 61.6801 38.9445C61.5873 38.6142 61.3669 38.3342 61.0671 38.1661C60.7674 37.9979 60.413 37.9554 60.0818 38.0479L55.0874 39.4427Z" fill="#E6E6E6"/>
<path d="M57.1973 46.9569C56.8665 47.0497 56.5862 47.2697 56.4179 47.5685C56.2496 47.8673 56.2071 48.2205 56.2997 48.5505C56.3924 48.8806 56.6126 49.1604 56.912 49.3286C57.2114 49.4968 57.5655 49.5396 57.8965 49.4476L62.891 48.0528C63.2218 47.96 63.5021 47.74 63.6704 47.4412C63.8387 47.1424 63.8812 46.7892 63.7885 46.4592C63.6959 46.1291 63.4757 45.8493 63.1763 45.6811C62.8769 45.5129 62.5228 45.4701 62.1917 45.5621L57.1973 46.9569Z" fill="#E6E6E6"/>
<path d="M59.2129 59.9818C59.0038 60.04 58.8081 60.1387 58.6373 60.2723C58.4664 60.4059 58.3236 60.5718 58.217 60.7605C58.1105 60.9492 58.0423 61.1569 58.0163 61.3719C57.9903 61.5869 58.007 61.8049 58.0656 62.0135C58.1241 62.222 58.2233 62.417 58.3575 62.5872C58.4916 62.7575 58.6581 62.8998 58.8474 63.0058C59.0367 63.1119 59.2451 63.1797 59.4607 63.2054C59.6763 63.231 59.8949 63.2141 60.1039 63.1554L66.4679 61.3782C66.8898 61.2603 67.2476 60.9801 67.4624 60.5992C67.6772 60.2183 67.7315 59.7679 67.6134 59.3471C67.4952 58.9262 67.2143 58.5694 66.8324 58.3552C66.4505 58.1409 65.9989 58.0868 65.5769 58.2046L59.2129 59.9818Z" fill="#F4DB8D"/>
<path d="M65.7626 53.574L18.6699 66.7255L18.7871 67.143L65.8798 53.9915L65.7626 53.574Z" fill="#E6E6E6"/>
<path d="M113.066 109.704L109.289 110.615L103.97 96.5186L109.545 95.1746L113.066 109.704Z" fill="#EFD4CB"/>
<path d="M102.773 116L102.748 115.894C102.448 114.653 102.655 113.345 103.322 112.255C103.989 111.166 105.062 110.385 106.305 110.083L113.695 108.302L114.855 113.087L102.773 116Z" fill="black"/>
<path d="M96.3465 112.27L92.4609 112.269L90.6123 97.3213L96.3471 97.3215L96.3465 112.27Z" fill="#EFD4CB"/>
<path d="M97.2876 115.977L84.8582 115.976V115.868C84.8582 114.591 85.3668 113.367 86.272 112.464C87.1772 111.561 88.405 111.054 89.6851 111.054H89.6854L97.2879 111.054L97.2876 115.977Z" fill="black"/>
<path d="M90.6092 106.435L86.8364 61.5903L102.454 58.7191L102.516 58.708L107.087 61.6388L105.496 78.1428L112.822 103.874L106.497 105.534L99.1592 81.67L97.4801 74.4131L96.6195 83.8429L97.2584 107.098L90.6092 106.435Z" fill="black"/>
<path d="M86.3526 62.6066L86.3113 62.5544L91.7082 22.0265L91.7152 21.9734L91.7532 21.9355C91.8328 21.8561 93.7237 19.9925 95.6686 19.9925C95.9498 19.9925 96.2172 19.9854 96.4736 19.9789C97.9619 19.9403 99.1376 19.9095 100.535 21.3032C101.958 22.723 106.603 27.9072 106.603 35.0076C106.603 41.8802 107.231 63.2379 107.237 63.4528L107.246 63.7543L106.992 63.5898C106.93 63.5497 100.682 59.5823 95.4431 63.2703C93.8057 64.423 92.3348 64.8271 91.0771 64.8271C88.1498 64.8271 86.3776 62.6384 86.3526 62.6066Z" fill="#F4DB8D"/>
<path d="M98.5765 16.6499C102.349 14.5931 103.735 9.87574 101.673 6.1133C99.6109 2.35086 94.8811 0.968109 91.1086 3.02485C87.3362 5.08158 85.9498 9.79896 88.012 13.5614C90.0742 17.3238 94.8041 18.7066 98.5765 16.6499Z" fill="#EFD4CB"/>
<path d="M82.9258 71.3174C83.2941 71.0327 83.5954 70.671 83.8083 70.2577C84.0213 69.8443 84.1408 69.3895 84.1584 68.9251C84.1761 68.4607 84.0914 67.9981 83.9104 67.5699C83.7294 67.1417 83.4564 66.7583 83.1108 66.4467L87.5315 56.0466L81.7432 57.1091L78.4325 66.8223C77.9461 67.4362 77.7024 68.2066 77.7475 68.9877C77.7926 69.7688 78.1234 70.5063 78.6773 71.0604C79.2312 71.6144 79.9696 71.9466 80.7526 71.994C81.5356 72.0414 82.3089 71.8006 82.9258 71.3174Z" fill="#EFD4CB"/>
<path d="M78.6548 63.2267L80.0783 60.2293C79.9904 60.1765 79.9179 60.1015 79.8681 60.0119C78.5381 57.7131 86.5718 38.6222 87.1073 37.3559C87.0256 36.6672 86.1823 29.3689 86.7989 26.9089C87.5248 24.013 89.0153 22.6633 91.7827 22.396C94.8346 22.1101 95.658 26.2436 95.6659 26.2856L95.6687 36.912L92.1661 49.1442L84.1781 65.3966L78.6548 63.2267Z" fill="#F4DB8D"/>
<path d="M95.8379 12.7618C94.9048 12.8829 94.2009 11.9307 93.8744 11.0504C93.5479 10.1702 93.2991 9.14536 92.4878 8.66987C91.3794 8.02025 89.9612 8.80157 88.6936 8.58724C87.2621 8.34519 86.3314 6.83213 86.2585 5.38589C86.1855 3.93965 86.7626 2.54869 87.3288 1.21528L87.5264 2.87241C87.5 2.31077 87.6185 1.75175 87.8706 1.24884C88.1227 0.745929 88.5 0.315939 88.9663 0L88.7115 2.43158C88.8713 1.06935 90.3427 0.0138024 91.6884 0.296099L91.6483 1.74492C93.3017 1.54884 94.9694 1.35249 96.6277 1.50187C98.2859 1.65125 99.9558 2.17453 101.213 3.26372C103.093 4.89298 103.779 7.57576 103.549 10.0491C103.318 12.5224 102.294 14.8459 101.228 17.0905C100.959 17.6552 100.588 18.2924 99.9653 18.3644C99.4061 18.429 98.8943 17.9627 98.7204 17.4286C98.5466 16.8945 98.6314 16.3143 98.7355 15.7624C98.8928 14.9287 99.0911 14.0766 98.9432 13.2412C98.7953 12.4059 98.1928 11.5804 97.3484 11.478C96.5041 11.3756 95.6401 12.3382 96.0461 13.0836L95.8379 12.7618Z" fill="black"/>
</g>
<defs>
<clipPath id="clip0_2078_431">
<rect width="130" height="116" fill="white"/>
</clipPath>
</defs>
</svg>
