<svg width="32" height="32" viewBox="0 0 32 32" fill="none" xmlns="http://www.w3.org/2000/svg">
<circle cx="16" cy="16" r="16" fill="#208376" fill-opacity="0.25"/>
<circle cx="16" cy="16" r="11.2" fill="#208376"/>
<path d="M21.6755 11.2176C21.9632 10.9275 22.4298 10.9275 22.7175 11.2176C23.0053 11.5077 23.0053 11.978 22.7175 12.2681L13.8754 21.1824C13.5877 21.4725 13.1211 21.4725 12.8334 21.1824L9.14917 17.4681C8.86141 17.178 8.86141 16.7077 9.14917 16.4176C9.43692 16.1275 9.90346 16.1275 10.1912 16.4176L13.3544 19.6066L21.6755 11.2176Z" fill="white"/>
<mask id="mask0_2028_435" style="mask-type:luminance" maskUnits="userSpaceOnUse" x="8" y="11" width="15" height="11">
<path d="M21.6755 11.2176C21.9632 10.9275 22.4298 10.9275 22.7175 11.2176C23.0053 11.5077 23.0053 11.978 22.7175 12.2681L13.8754 21.1824C13.5877 21.4725 13.1211 21.4725 12.8334 21.1824L9.14917 17.4681C8.86141 17.178 8.86141 16.7077 9.14917 16.4176C9.43692 16.1275 9.90346 16.1275 10.1912 16.4176L13.3544 19.6066L21.6755 11.2176Z" fill="white"/>
</mask>
<g mask="url(#mask0_2028_435)">
</g>
</svg>
