<svg width="49" height="50" viewBox="0 0 49 50" fill="none" xmlns="http://www.w3.org/2000/svg">
<rect y="0.946533" width="48.4395" height="48.4395" rx="24.2198" fill="white"/>
<path d="M19.5225 15.6656C21.1241 15.6063 22.6892 16.1545 23.9033 17.2008L24.001 17.2858L24.0986 17.2008C25.3117 16.1562 26.8748 15.6091 28.4746 15.6676C30.0744 15.7262 31.5931 16.3867 32.7266 17.5172C33.8601 18.6477 34.5252 20.1646 34.5879 21.7643C34.6505 23.3616 34.1078 24.9233 33.0693 26.1383L25.3076 33.9254C24.9777 34.2554 24.5356 34.4488 24.0693 34.4664C23.6046 34.4839 23.1501 34.3254 22.7969 34.0231L22.6904 33.9264H22.6914L14.9277 26.1354C13.8917 24.9219 13.3498 23.3628 13.4111 21.7682C13.4689 20.2695 14.0553 18.8424 15.0605 17.7379L15.2676 17.5221C16.4009 16.3886 17.9207 15.7251 19.5225 15.6656ZM19.6074 17.3639C18.5712 17.3975 17.5781 17.7764 16.7842 18.4371L16.6279 18.5729L16.626 18.5748L16.4717 18.7203L16.4688 18.7233C15.6237 19.5685 15.1365 20.7071 15.1084 21.902C15.0821 23.0221 15.4617 24.1112 16.1719 24.9713L16.3184 25.1403L16.3203 25.1432L16.4658 25.2965L24 32.8307L24.1064 32.7242L29.4092 27.4196L29.5156 27.3131L29.4092 27.2076L25.874 23.6735L25.7676 23.567L25.6621 23.6735L24.6016 24.733V24.734C24.0673 25.2683 23.3426 25.5687 22.5869 25.569C21.831 25.5691 21.1059 25.2684 20.5713 24.734C20.0367 24.1996 19.7356 23.4752 19.7354 22.7194C19.7352 22.0579 19.9654 21.42 20.3809 20.9127L20.5703 20.7037L22.6719 18.6002L22.791 18.4821L22.6592 18.3776C21.7949 17.6876 20.7128 17.3281 19.6074 17.3639ZM28.4072 17.3629C27.2694 17.323 26.1593 17.7023 25.2852 18.4235L25.1133 18.5729L25.1104 18.5748L24.957 18.7213L24.9551 18.7233L21.7734 21.9059C21.5742 22.105 21.4541 22.3698 21.4375 22.651C21.421 22.9319 21.5086 23.2093 21.6826 23.4303V23.4313L21.6895 23.4391L21.7676 23.526L21.7725 23.5319C21.9716 23.7311 22.2374 23.8502 22.5186 23.8668C22.7649 23.8813 23.0086 23.8159 23.2139 23.6823L23.2988 23.6217L23.3066 23.6149L23.3936 23.5377L23.3994 23.5319L25.167 21.7633C25.3263 21.6041 25.5424 21.5154 25.7676 21.5153C25.9649 21.5153 26.1554 21.5836 26.3066 21.7076L26.3691 21.7633L30.6113 26.0055L30.7168 26.1119L30.8232 26.0055L31.5312 25.2994C32.3903 24.4409 32.879 23.2804 32.8936 22.066C32.908 20.8515 32.4468 19.6792 31.6084 18.8004C30.77 17.9217 29.621 17.4055 28.4072 17.3629Z" fill="#7C084B" stroke="white" stroke-width="0.3"/>
</svg>
