<svg width="49" height="49" viewBox="0 0 49 49" fill="none" xmlns="http://www.w3.org/2000/svg">
<rect width="48.4395" height="48.4395" rx="24.2198" fill="white"/>
<path d="M21 13.9963H26C26.252 13.9963 26.4937 14.0965 26.6719 14.2747C26.85 14.4528 26.9502 14.6946 26.9502 14.9465C26.9502 15.1985 26.85 15.4402 26.6719 15.6184C26.4937 15.7966 26.252 15.8967 26 15.8967H21C20.1911 15.8967 19.4157 16.2183 18.8438 16.7903C18.2718 17.3623 17.9502 18.1376 17.9502 18.9465V28.9465C17.9502 29.7554 18.2718 30.5308 18.8438 31.1028C19.4157 31.6748 20.1911 31.9963 21 31.9963H26C26.252 31.9963 26.4937 32.0965 26.6719 32.2747C26.85 32.4528 26.9502 32.6946 26.9502 32.9465C26.9502 33.1985 26.85 33.4402 26.6719 33.6184C26.4937 33.7966 26.252 33.8967 26 33.8967H21C19.6872 33.8967 18.4283 33.3748 17.5 32.4465C16.5717 31.5182 16.0498 30.2594 16.0498 28.9465V18.9465C16.0498 17.6337 16.5717 16.3748 17.5 15.4465C18.4283 14.5182 19.6872 13.9963 21 13.9963Z" fill="#7C084B" stroke="white" stroke-width="0.1"/>
<path d="M28.1689 18.9968C28.2937 18.9928 28.4184 19.0134 28.5352 19.0574C28.6225 19.0903 28.7045 19.1355 28.7783 19.1921L28.8496 19.2527L33.6494 23.7527C33.7443 23.8415 33.8203 23.9498 33.8721 24.0691C33.9237 24.1883 33.9502 24.3171 33.9502 24.447C33.9501 24.5769 33.9237 24.7058 33.8721 24.825C33.8333 24.9142 33.7813 24.9969 33.7178 25.0701L33.6494 25.1404L28.8496 29.6404C28.7587 29.7255 28.6517 29.7917 28.5352 29.8357C28.4184 29.8797 28.2937 29.9003 28.1689 29.8962C28.0443 29.8922 27.9213 29.8637 27.8076 29.8123C27.6941 29.7608 27.5921 29.6873 27.5068 29.5964C27.4216 29.5055 27.3545 29.3986 27.3105 29.282C27.2666 29.1652 27.246 29.0405 27.25 28.9158C27.2541 28.791 27.2825 28.6681 27.334 28.5544C27.3726 28.4691 27.4238 28.3902 27.4854 28.3201L27.5498 28.2527L30.5049 25.4832L30.5977 25.3962H21C20.748 25.3962 20.5063 25.2961 20.3281 25.1179C20.1502 24.9399 20.0499 24.6987 20.0498 24.447C20.0498 24.1952 20.1501 23.9533 20.3281 23.7751C20.5063 23.597 20.748 23.4968 21 23.4968H30.5977L30.5049 23.4099L27.5498 20.6404C27.4587 20.5551 27.3855 20.4523 27.334 20.3386C27.2825 20.225 27.2541 20.102 27.25 19.9773C27.246 19.8527 27.2667 19.7287 27.3105 19.6121C27.3436 19.5244 27.3894 19.4419 27.4463 19.3679L27.5068 19.2966C27.592 19.2057 27.6941 19.1323 27.8076 19.0808C27.9213 19.0293 28.0442 19.0009 28.1689 18.9968Z" fill="#7C084B" stroke="white" stroke-width="0.1"/>
</svg>
